<svg width="36" height="39" viewBox="0 0 36 39" fill="none" xmlns="http://www.w3.org/2000/svg">
<path d="M34.1714 38.3219L1.79829 38.244C1.3213 38.2429 0.864242 38.0739 0.527676 37.7743C0.191109 37.4747 0.0025997 37.0689 0.00361652 36.6464L0.00741978 35.0658C0.0185143 32.6028 0.954705 30.2136 2.66836 28.275C4.38202 26.3364 6.77565 24.9587 9.4718 24.3591C9.8541 24.2771 10.1947 24.0848 10.4402 23.8126C10.6856 23.5404 10.822 23.2035 10.8279 22.8551L10.8318 21.2522L8.82711 19.4692C8.32494 19.0303 7.92655 18.5071 7.65525 17.9303C7.38396 17.3535 7.2452 16.7346 7.2471 16.1099L7.26296 9.51669C7.30185 7.05497 8.40441 4.70065 10.3437 2.93825C12.283 1.17585 14.9116 0.139454 17.6884 0.04235C19.1546 0.0442031 20.6062 0.301886 21.9604 0.800686C23.3145 1.29949 24.5447 2.02964 25.5806 2.94945C26.6165 3.86926 27.4379 4.96071 27.9978 6.1615C28.5578 7.36228 28.8454 8.64888 28.8441 9.94784L28.8292 16.1618C28.8271 16.791 28.6829 17.4134 28.4051 17.9923C28.1272 18.5712 27.7214 19.0949 27.2114 19.5326L25.2198 21.2868L25.216 22.8897C25.2203 23.2384 25.3553 23.576 25.5998 23.8495C25.8443 24.1229 26.1844 24.3167 26.5666 24.4002C29.2593 25.0134 31.6457 26.4028 33.3496 28.3495C35.0536 30.2963 35.9781 32.6896 35.9775 35.1523L35.9737 36.7329C35.9727 37.1555 35.7823 37.5603 35.4443 37.8583C35.1063 38.1563 34.6484 38.3231 34.1714 38.3219ZM3.60446 35.0617L32.3806 35.1309C32.3764 33.3776 31.7142 31.6748 30.4982 30.2908C29.2822 28.9068 27.5814 27.92 25.6635 27.4859C24.5086 27.2241 23.4845 26.6296 22.7524 25.796C22.0202 24.9624 21.6215 23.937 21.6189 22.881L21.6244 20.6185C21.6255 20.196 21.816 19.7912 22.1541 19.4933L24.6954 17.2544C24.8639 17.1124 24.9984 16.9416 25.0906 16.7524C25.1829 16.5631 25.231 16.3593 25.2322 16.1531L25.2471 9.93918C25.2543 8.17843 24.4768 6.4859 23.0836 5.22946C21.6903 3.97302 19.7939 3.25423 17.8066 3.22929C15.9583 3.29043 14.2074 3.97757 12.9149 5.14903C11.6224 6.32049 10.8869 7.88693 10.86 9.52535L10.8441 16.1185C10.8433 16.3202 10.8879 16.5201 10.9755 16.7064C11.0631 16.8927 11.1918 17.0616 11.3541 17.2032L13.9061 19.4719C14.2427 19.7714 14.4313 20.1771 14.4304 20.5996L14.4249 22.8621C14.4174 23.9178 14.014 24.9412 13.2782 25.7712C12.5424 26.6013 11.5158 27.191 10.36 27.4475C8.43948 27.8721 6.73331 28.8508 5.51025 30.2293C4.28719 31.6078 3.61673 33.3079 3.60446 35.0617Z" fill="#ACACAC"/>
</svg>
